# xmcd CD database file
#
# Track frame offsets:
#	150
#	17830
#	36357
#	58426
#
# Disc length: 1033 seconds
#
# Revision: 0
# Processed by: cddbd v1.5.2PL0 Copyright (c) Steve Scherf et al.
# Submitted via: CDex 1.70beta3
#
DISCID=35040704
DTITLE=関ジャニ∞ - スタートダッシュ！
DYEAR=2018
DGENRE=KING RECORDS
TTITLE0=スタートダッシュ！
TTITLE1=アカツキ
TTITLE2=僕らの軌跡 ～ジャニーズWEST 列島縦断～
TTITLE3=クチウツシ
EXTD=YEAR: 2018
EXTT0=
EXTT1=
EXTT2=
EXTT3=
PLAYORDER=
